<?xml version="1.0" encoding="UTF-8" standalone="no" ?>
<!DOCTYPE svg PUBLIC "-//W3C//DTD SVG 1.1//EN" "http://www.w3.org/Graphics/SVG/1.1/DTD/svg11.dtd">
<svg xmlns="http://www.w3.org/2000/svg" xmlns:xlink="http://www.w3.org/1999/xlink" version="1.1" width="1080" height="1080" viewBox="0 0 1080 1080" xml:space="preserve">
<desc>Created with Fabric.js 5.2.4</desc>
<defs>
</defs>
<g transform="matrix(1 0 0 1 540 540)" id="bb47ce05-bb7a-4eb9-a7a9-bfeb174f923a"  >
<rect style="stroke: none; stroke-width: 1; stroke-dasharray: none; stroke-linecap: butt; stroke-dashoffset: 0; stroke-linejoin: miter; stroke-miterlimit: 4; fill: rgb(255,255,255); fill-rule: nonzero; opacity: 1; visibility: hidden;" vector-effect="non-scaling-stroke"  x="-540" y="-540" rx="0" ry="0" width="1080" height="1080" />
</g>
<g transform="matrix(1 0 0 1 540 540)" id="7dc01ed2-bde4-4b18-964e-6adb242172c1"  >
</g>
<g transform="matrix(27 0 0 27 540 540)"  >
<path style="stroke: none; stroke-width: 1; stroke-dasharray: none; stroke-linecap: butt; stroke-dashoffset: 0; stroke-linejoin: miter; stroke-miterlimit: 4; fill: rgb(255,255,255); fill-rule: nonzero; opacity: 1;"  transform=" translate(-20, -20)" d="M 39.74 27.009 C 39.50236415670075 26.363827456903735 39.20787290889506 25.741045397623765 38.86 25.148 C 38.487868618434334 24.491145382391615 38.04161851925611 23.879145246375764 37.53 23.323999999999998 C 37.02729430306116 22.780347071346263 36.447838477807004 22.313076589004684 35.81 21.936999999999998 C 35.191719016696105 21.573822450897776 34.48704902731871 21.383837894938182 33.77 21.386999999999997 L 33.77 36.787 C 33.76266292678085 37.20282839868482 33.8409523904178 37.61572022212664 34 38 C 34.14975739863649 38.33555039601807 34.36771217618974 38.63625987817357 34.64 38.883 C 34.91759771539242 39.12677070614757 35.24037425961854 39.313641337015326 35.59 39.433 C 35.96644658348537 39.56205213065203 36.36206079447887 39.62629717346293 36.760000000000005 39.623 L 36.760000000000005 40 L 30.630000000000006 40 L 30.630000000000006 21.577 C 29.915838084959525 21.55760978366889 29.206031313046033 21.69411108595995 28.550000000000004 21.977 C 27.983372970072523 22.233232852516835 27.48114275985364 22.612809562416956 27.080000000000005 23.088 C 26.663871011373367 23.59476602108233 26.345166292441412 24.174198323906488 26.140000000000004 24.797 C 25.88702086821265 25.51492292282214 25.706129186670562 26.256243832549277 25.60000000000001 27.010000000000005 L 25.340000000000003 27.01 C 25.232525517986623 26.262700333928112 25.051651055505527 25.527814091921584 24.8 24.815999999999995 C 24.583264636272588 24.189366306436135 24.25460601568427 23.607267842342598 23.830000000000005 23.098000000000003 C 23.407225731296087 22.613576546821164 22.880902077392705 22.23045393901227 22.290000000000003 21.977000000000004 C 21.588228443800187 21.694666949302345 20.836210987545257 21.558555192514124 20.080000000000002 21.577000000000005 L 18.720000000000006 21.577000000000005 L 18.720000000000006 30 L 19.960000000000004 30 C 20.152774055725395 29.968531952910944 20.343206215806422 29.92409778222537 20.530000000000005 29.867 C 20.998230662778447 29.714807015007672 21.41871501570366 29.443215482134665 21.750000000000004 29.079 C 22.07862552990058 28.69222852618901 22.311576433687307 28.23352079064427 22.430000000000003 27.740000000000002 C 22.580050898500946 27.115038541693433 22.65060866428251 26.473634851802917 22.64 25.831000000000003 L 22.930000000000003 25.831000000000003 L 24 34.947 L 23.71 34.947 C 23.52504319798864 33.72672906443238 22.95785437723919 32.5965528216057 22.089999999999996 31.718999999999998 C 21.722929552515982 31.401907947024792 21.298657043250593 31.15786639969534 20.839999999999996 31 L 18.72 31 L 18.72 39.43 L 20.91 39.43 C 21.657876012865177 39.43749867612903 22.398398492371257 39.2818865790531 23.080000000000002 38.974 C 23.740420567013388 38.671532335928866 24.34547018519064 38.2605042154241 24.869999999999997 37.757999999999996 C 25.41261257921079 37.24715529687477 25.880544879572803 36.66240824239361 26.259999999999998 36.020999999999994 C 26.65305298673695 35.38382188842448 26.974980651739045 34.705426402696105 27.22 33.99799999999999 L 27.48 33.99799999999999 L 26.71 39.99799999999999 L 12.57 39.99799999999999 L 12.57 39.61799999999999 C 12.967939205521132 39.62129717346292 13.36355341651463 39.55705213065202 13.740000000000002 39.42799999999999 C 14.089625740381457 39.30864133701532 14.412402284607584 39.12177070614756 14.69 38.87799999999999 C 14.964043754845887 38.63110785117392 15.179312348353497 38.32597316228139 15.32 37.98499999999999 C 15.45959668797585 37.67560340723745 15.521392508509544 37.33675632464436 15.5 36.99799999999999 L 15.5 24.5 L 10 38 L 9.5 38 L 4 25.593 L 4 36.5 C 4.041531928184206 37.0125085582076 4.166511185941405 37.51479006168045 4.370000000000001 37.987 C 4.517823339179648 38.3265530910756 4.735951779136087 38.63091042995232 5.01 38.88 C 5.286112110694354 39.1258323520512 5.609326079410694 39.31295622867645 5.959999999999999 39.43 C 6.333190603578832 39.55827477622608 6.725387119673638 39.62251386075884 7.12 39.62 L 7.12 40 L 0 40 L 0 39.62 C 0.3978759309825311 39.622475626465736 0.7933534681232367 39.558252778554 1.1699999999999995 39.43 C 1.5176507427049446 39.31288333293202 1.837579057133344 39.125691234064334 2.1099999999999994 38.88 C 2.3870854857453923 38.63362956606054 2.6057275369522723 38.32855557898594 2.75 37.987 C 2.9069559009996926 37.60664808839943 2.985197451318348 37.19843130412819 2.9800000000000004 36.787 L 2.98 23.362 C 2.504543430602066 22.13950507795752 1.3111354109107514 21.348571910544653 -1.7763568394002505e-15 21.387 L 0 21.008 L 3.07 21.008 C 3.7358717327942745 20.98887661148864 4.397908351037536 21.11514132733916 5.009999999999998 21.378 C 5.606119327631358 21.69084464885122 6.062962665577315 22.21621448748907 6.29 22.85 L 11 33.5 L 15.5 22.5 C 15.721297895808718 21.984550431216793 16.14414917981928 21.58229959437598 16.67 21.387 C 17.201637033415967 21.13641815785786 17.782268652342317 21.0069714616384 18.369999999999997 21.008 L 39.31 21.008 L 40 27.008 L 39.74 27.008 Z M 23.810000000000002 18.992 L 23.810000000000002 18.612000000000002 C 24.505898818060885 18.72762245348415 25.21455612868167 18.497595178119358 25.709883233496043 17.99530564412085 C 26.205210338310415 17.49301611012234 26.425324160744335 16.781217236505952 26.300000000000004 16.087000000000003 L 26.300000000000004 10 L 19.480000000000004 10 L 19.480000000000004 16.087 C 19.354675839255673 16.78121723650595 19.574789661689593 17.493016110122337 20.070116766503965 17.995305644120847 C 20.565443871318337 18.497595178119354 21.274101181939123 18.727622453484145 21.970000000000006 18.612 L 21.970000000000006 18.991999999999997 L 13.340000000000005 18.991999999999997 L 13.340000000000005 18.612 C 13.73791866280849 18.616106034724677 14.1336131525536 18.552186155612006 14.510000000000005 18.423 C 14.859868502822357 18.303700452709563 15.182717589546684 18.116447982409454 15.460000000000004 17.872 C 15.734024502051666 17.62328187213811 15.95216067657583 17.31925457889506 16.100000000000005 16.98 C 16.256955900999696 16.599648088399434 16.33519745131835 16.19143130412819 16.330000000000005 15.780000000000001 L 16.330000000000005 5.7 C 16.352197439233866 4.8482687172205585 16.213085451360108 4.000024888722032 15.920000000000005 3.2 C 15.681192618878757 2.5639187218969415 15.285631874571834 1.99843884047035 14.770000000000003 1.5559999999999996 C 14.244000163909423 1.1264846076389068 13.629212215543225 0.8190906334558087 12.97 0.6559999999999999 C 12.204996190141172 0.4644973835576003 11.418558438093179 0.37207414346649154 10.629999999999997 0.38100000000000167 L 10.630000000000004 18.993 L 4.49 18.993 L 4.49 18.613 C 4.887918662808484 18.617106034724678 5.283613152553596 18.553186155612007 5.66 18.424 C 6.009868502822353 18.304700452709564 6.3327175895466805 18.117447982409455 6.610000000000001 17.873 C 6.882507241558006 17.626456665702563 7.100497897789876 17.325697682182653 7.25 16.990000000000002 C 7.408351413938966 16.6079641760177 7.486632239642615 16.197500368197698 7.48 15.784000000000002 L 7.48 0.384 C 6.7820337572933695 0.39189023410342017 6.0987061944596155 0.5851545953089262 5.499999999999998 0.9440000000000014 C 4.831443623242338 1.324156043989071 4.218925507187495 1.79532382556972 3.679999999999997 2.344000000000004 C 3.131721825554539 2.8990182405985743 2.6393524969058655 3.5066086910534695 2.2099999999999973 4.158000000000005 C 1.8242085162932775 4.735444495139802 1.5086476167885479 5.356830904696457 1.2700000000000005 6.009 L 1.01 6.0089999999999995 L 1.78 0.008999999999999453 L 21.970000000000002 0.008999999999999453 L 21.970000000000002 0.38899999999999946 C 21.27857266791299 0.2953522346279129 20.58340081335556 0.5326711920431211 20.093577446383247 1.029576342634312 C 19.603754079410933 1.5264814932255026 19.376437598645605 2.224988051884708 19.480000000000004 2.9149999999999983 L 19.480000000000004 9 L 26.300000000000004 9 L 26.300000000000004 2.906 C 26.402253059700637 2.216259175076119 26.174502463590397 1.5185523146847182 25.68500295733801 1.0219757071371158 C 25.19550345108562 0.5253990995895137 24.50113744341541 0.28765754988074654 23.81 0.38000000000000034 L 23.81 0 L 37.48 0 L 38.25 6 L 37.99 6 C 37.74457900821861 5.293055375562445 37.422669840793056 4.615034191672374 37.03 3.977999999999999 C 36.65004447736317 3.336638173077203 36.18217039140324 2.751627265596379 35.64 2.239999999999999 C 35.11332540912176 1.7357520033538283 34.50462397656105 1.3248785363753495 33.839999999999996 1.0249999999999977 C 33.15839849237126 0.7171134209468981 32.41787601286517 0.5615013238709667 31.669999999999998 0.5690000000000015 L 29.46 0.5690000000000002 L 29.46 9 L 30.78 9 C 31.508762529291378 8.908273146966852 32.1959289494406 8.609459870326205 32.76 8.139000000000001 C 33.54921537652278 7.225219336544256 33.922402774281814 6.024135624339222 33.79 4.823999999999998 L 34.08 4.824 L 35.26 13.941 L 34.97 13.941 C 34.84135349593339 13.274032106438483 34.59772570337338 12.634509150968462 34.25 12.050999999999998 C 33.6623907597321 11.069132647179742 32.73296941427307 10.338771275709833 31.64 10 L 29.46 10 L 29.46 18.423000000000002 L 32.410000000000004 18.423000000000002 C 33.15787601286518 18.430498676129037 33.89839849237126 18.274886579053103 34.580000000000005 17.967000000000002 C 35.241922838453604 17.661872869730633 35.84984939240317 17.251184708840256 36.38 16.751000000000005 C 36.91950604025024 16.2372970250702 37.38707507352475 15.653003923776803 37.77 15.014000000000003 C 38.15490019545348 14.372422765732804 38.476417086919355 13.694892899654207 38.730000000000004 12.991000000000003 L 38.99 12.991000000000001 L 38.21 18.991 L 23.810000000000002 18.991 Z" stroke-linecap="round" />
</g>
</svg>